<svg width="21" height="22" viewBox="0 0 21 22" fill="none" xmlns="http://www.w3.org/2000/svg">
<path d="M10.5 11C11.6182 11 12.7113 10.6774 13.6411 10.0731C14.5709 9.46874 15.2955 8.60975 15.7235 7.60476C16.1514 6.59977 16.2634 5.4939 16.0452 4.427C15.8271 3.36011 15.2886 2.3801 14.4979 1.61091C13.7072 0.841726 12.6997 0.317902 11.603 0.105683C10.5063 -0.106535 9.36947 0.00238306 8.33637 0.418665C7.30326 0.834947 6.42025 1.5399 5.799 2.44437C5.17775 3.34884 4.84615 4.4122 4.84615 5.5C4.84615 6.95869 5.44183 8.35764 6.50213 9.38909C7.56243 10.4205 9.00051 11 10.5 11ZM10.5 12.5714C6.99562 12.5714 0 14.6771 0 18.8571V22H21V18.8571C21 14.6771 14.0044 12.5714 10.5 12.5714Z" fill="black"/>
</svg>
