<svg width="17" height="17" viewBox="0 0 17 17" fill="none" xmlns="http://www.w3.org/2000/svg">
<path d="M7.84197 1.75745H2.52044C2.11719 1.75745 1.73046 1.91763 1.44533 2.20276C1.16019 2.48789 1 2.87461 1 3.27785V13.9207C1 14.3239 1.16019 14.7106 1.44533 14.9958C1.73046 15.2809 2.11719 15.4411 2.52044 15.4411H13.1635C13.5667 15.4411 13.9535 15.2809 14.2386 14.9958C14.5238 14.7106 14.6839 14.3239 14.6839 13.9207V8.59927" stroke="#868686" stroke-width="2" stroke-linecap="round" stroke-linejoin="round"/>
<path d="M12.6882 1.47233C12.9906 1.1699 13.4008 1 13.8285 1C14.2562 1 14.6664 1.1699 14.9688 1.47233C15.2713 1.77476 15.4412 2.18494 15.4412 2.61263C15.4412 3.04033 15.2713 3.45051 14.9688 3.75294L8.11697 10.6054C7.93645 10.7858 7.71345 10.9178 7.4685 10.9893L5.28439 11.6279C5.21898 11.647 5.14963 11.6481 5.08362 11.6312C5.01762 11.6143 4.95737 11.5799 4.90918 11.5317C4.861 11.4836 4.82666 11.4233 4.80974 11.3573C4.79283 11.2913 4.79398 11.222 4.81306 11.1565L5.45164 8.97248C5.5235 8.72774 5.65578 8.50501 5.83631 8.32479L12.6882 1.47233Z" stroke="#868686" stroke-width="2" stroke-linecap="round" stroke-linejoin="round"/>
</svg>
