<svg width="27" height="24" viewBox="0 0 27 24" fill="none" xmlns="http://www.w3.org/2000/svg">
<path d="M21.0203 0.75H5.47973C4.22533 0.75 3.0223 1.24831 2.13531 2.13531C1.24831 3.0223 0.75 4.22533 0.75 5.47973V17.6419C0.75 18.8963 1.24831 20.0993 2.13531 20.9863C3.0223 21.8733 4.22533 22.3716 5.47973 22.3716H21.0203C22.2747 22.3716 23.4777 21.8733 24.3647 20.9863C25.2517 20.0993 25.75 18.8963 25.75 17.6419V5.47973C25.75 4.22533 25.2517 3.0223 24.3647 2.13531C23.4777 1.24831 22.2747 0.75 21.0203 0.75Z" stroke="black" stroke-width="1.5" stroke-linecap="round" stroke-linejoin="round"/>
<path d="M20.1417 4.73651H6.35795C6.145 4.73651 5.93413 4.77846 5.73738 4.85995C5.54064 4.94144 5.36187 5.06089 5.21129 5.21147C5.06071 5.36205 4.94126 5.54082 4.85977 5.73757C4.77827 5.93431 4.73633 6.14518 4.73633 6.35813V7.01084C4.73633 7.22379 4.77827 7.43466 4.85977 7.6314C4.94126 7.82815 5.06071 8.00691 5.21129 8.1575C5.36187 8.30808 5.54064 8.42752 5.73738 8.50902C5.93413 8.59051 6.145 8.63246 6.35795 8.63246H20.1417C20.5718 8.63246 20.9843 8.46161 21.2884 8.1575C21.5925 7.85338 21.7634 7.44092 21.7634 7.01084V6.35813C21.7634 5.92805 21.5925 5.51559 21.2884 5.21147C20.9843 4.90736 20.5718 4.73651 20.1417 4.73651ZM20.1417 12.3581H16.2228C15.7927 12.3581 15.3803 12.529 15.0762 12.8331C14.772 13.1372 14.6012 13.5497 14.6012 13.9798V16.7635C14.6012 17.1936 14.772 17.6061 15.0762 17.9102C15.3803 18.2143 15.7927 18.3852 16.2228 18.3852H20.1417C20.5718 18.3852 20.9843 18.2143 21.2884 17.9102C21.5925 17.6061 21.7634 17.1936 21.7634 16.7635V13.9798C21.7634 13.5497 21.5925 13.1372 21.2884 12.8331C20.9843 12.529 20.5718 12.3581 20.1417 12.3581ZM9.19579 12.3581H6.35795C6.145 12.3581 5.93413 12.4001 5.73738 12.4816C5.54064 12.5631 5.36187 12.6825 5.21129 12.8331C5.06071 12.9837 4.94126 13.1624 4.85977 13.3592C4.77827 13.5559 4.73633 13.7668 4.73633 13.9798V16.7635C4.73633 16.9765 4.77827 17.1874 4.85977 17.3841C4.94126 17.5808 5.06071 17.7596 5.21129 17.9102C5.36187 18.0608 5.54064 18.1802 5.73738 18.2617C5.93413 18.3432 6.145 18.3852 6.35795 18.3852H9.19579C9.62587 18.3852 10.0383 18.2143 10.3424 17.9102C10.6466 17.6061 10.8174 17.1936 10.8174 16.7635V13.9798C10.8174 13.5497 10.6466 13.1372 10.3424 12.8331C10.0383 12.529 9.62587 12.3581 9.19579 12.3581Z" fill="black"/>
</svg>
