<svg width="14" height="16" viewBox="0 0 14 16" fill="none" xmlns="http://www.w3.org/2000/svg">
<path d="M2.55887 15.3532C2.08974 15.3532 1.68829 15.1863 1.3545 14.8525C1.02071 14.5187 0.853527 14.117 0.852958 13.6473V2.55887C0.611288 2.55887 0.408853 2.47698 0.245654 2.31322C0.0824554 2.14945 0.000571578 1.94701 2.94122e-06 1.70591C-0.000565696 1.46481 0.0813181 1.26237 0.245654 1.09861C0.40999 0.934839 0.612425 0.852956 0.852958 0.852956H4.26478C4.26478 0.611285 4.34666 0.40885 4.51043 0.245651C4.6742 0.0824525 4.87663 0.000568637 5.11774 0H8.52956C8.77123 0 8.97395 0.0818838 9.13772 0.245651C9.30148 0.409419 9.38308 0.611853 9.38251 0.852956H12.7943C13.036 0.852956 13.2387 0.934839 13.4025 1.09861C13.5663 1.26237 13.6479 1.46481 13.6473 1.70591C13.6467 1.94701 13.5648 2.14973 13.4016 2.31407C13.2384 2.4784 13.036 2.56 12.7943 2.55887V13.6473C12.7943 14.1164 12.6274 14.5182 12.2937 14.8525C11.9599 15.1869 11.5581 15.3538 11.0884 15.3532H2.55887ZM11.0884 2.55887H2.55887V13.6473H11.0884V2.55887ZM5.11774 11.9414C5.35941 11.9414 5.56213 11.8595 5.72589 11.6957C5.88966 11.532 5.97126 11.3295 5.97069 11.0884V5.11773C5.97069 4.87606 5.88881 4.67363 5.72504 4.51043C5.56127 4.34723 5.35884 4.26535 5.11774 4.26478C4.87663 4.26421 4.6742 4.34609 4.51043 4.51043C4.34666 4.67477 4.26478 4.8772 4.26478 5.11773V11.0884C4.26478 11.3301 4.34666 11.5328 4.51043 11.6966C4.6742 11.8603 4.87663 11.9419 5.11774 11.9414ZM8.52956 11.9414C8.77123 11.9414 8.97395 11.8595 9.13772 11.6957C9.30148 11.532 9.38308 11.3295 9.38251 11.0884V5.11773C9.38251 4.87606 9.30063 4.67363 9.13686 4.51043C8.97309 4.34723 8.77066 4.26535 8.52956 4.26478C8.28846 4.26421 8.08602 4.34609 7.92225 4.51043C7.75849 4.67477 7.6766 4.8772 7.6766 5.11773V11.0884C7.6766 11.3301 7.75849 11.5328 7.92225 11.6966C8.08602 11.8603 8.28846 11.9419 8.52956 11.9414Z" fill="#D74836"/>
</svg>
