<svg width="94" height="22" viewBox="0 0 94 22" fill="none" xmlns="http://www.w3.org/2000/svg">
<path d="M72 12.375V9.9375C72 9 72.4688 8.53125 73.4062 8.53125C74.0312 8.53125 74.3438 8.21875 74.3438 7.59375V2.29688C74.3438 1.35938 74.8125 0.890625 75.75 0.890625H91.7812C92.7188 0.890625 93.1875 1.35938 93.1875 2.29688V15.8438C93.1875 19.9062 91.1562 21.9375 87.0938 21.9375H73.4062C72.4688 21.9375 72 21.4688 72 20.5312V18.0938C72 17.1562 72.4688 16.6875 73.4062 16.6875H84.5391C85.1641 16.6875 85.4766 16.375 85.4766 15.75V6.14062H82.0547V7.6875C82.0547 11.75 80.0234 13.7812 75.9609 13.7812H73.4062C72.4688 13.7812 72 13.3125 72 12.375Z" fill="black"/>
<path d="M48.0234 20.8828V17.3906C48.0234 16.4531 48.4922 15.8516 49.4297 15.5859L55.875 13.5938C58.3594 12.625 59.6016 10.7891 59.6016 8.08594V6.14062H49.4062C48.4688 6.14062 48 5.67188 48 4.73438V2.29688C48 1.35938 48.4688 0.890625 49.4062 0.890625H65.9062C66.8438 0.890625 67.3125 1.35938 67.3125 2.29688V8.64844C67.3125 10.5703 66.8125 12.2812 65.8125 13.7812L67.7812 15.1406C68.7188 15.7344 69.1875 16.5156 69.1875 17.4844V21.0469C69.1875 22.0156 68.7188 22.1719 67.7812 21.5156L61.8047 17.4141C60.4609 18.1953 58.8672 18.8672 57.0234 19.4297L49.4297 21.7734C48.4922 22.1172 48.0234 21.8203 48.0234 20.8828Z" fill="black"/>
<path d="M45.1875 11.625C45.1875 18.5 41.75 21.9375 34.875 21.9375H27.2812C26.3438 21.9375 25.875 21.4688 25.875 20.5312V18.0938C25.875 17.1562 26.3438 16.6875 27.2812 16.6875H33.2578C36.0703 16.6875 37.4766 15.2812 37.4766 12.4688V6.14062H25.4062C24.4688 6.14062 24 5.67188 24 4.73438V2.29688C24 1.35938 24.4688 0.890625 25.4062 0.890625H37.4297V4.42969C37.4453 5.61719 38.0703 6.21094 39.3047 6.21094H45.1875V11.625ZM41.7422 4.52344C41.7422 5.14844 41.4141 5.46094 40.7578 5.46094H39.1406C38.5 5.46094 38.1719 5.14844 38.1562 4.52344V0.914062C38.1719 0.304688 38.5 0 39.1406 0H40.7578C41.4141 0 41.7422 0.304688 41.7422 0.914062V4.52344ZM46.0547 4.52344C46.0547 5.14844 45.7266 5.46094 45.0703 5.46094H43.4531C42.8125 5.46094 42.4844 5.14844 42.4688 4.52344V0.914062C42.4844 0.304688 42.8125 0 43.4531 0H45.0703C45.7266 0 46.0547 0.304688 46.0547 0.914062V4.52344Z" fill="black"/>
<path d="M1.875 20.5312V18.0938C1.875 17.1562 2.34375 16.6875 3.28125 16.6875H10.6641C11.2891 16.6875 11.6016 16.375 11.6016 15.75V8.57812H9.58594V13.3125C9.58594 14.25 9.11719 14.7188 8.17969 14.7188H3.28125C2.34375 14.7188 1.875 14.25 1.875 13.3125V8.57812H1.40625C0.46875 8.57812 0 8.10938 0 7.17188V4.73438C0 3.79688 0.46875 3.32812 1.40625 3.32812H1.875V2.29688C1.875 1.35938 2.34375 0.890625 3.28125 0.890625H8.17969C9.11719 0.890625 9.58594 1.35938 9.58594 2.29688V3.32812H11.6016V2.29688C11.6016 1.35938 12.0703 0.890625 13.0078 0.890625H17.9062C18.8438 0.890625 19.3125 1.35938 19.3125 2.29688V3.32812H19.7812C20.7188 3.32812 21.1875 3.79688 21.1875 4.73438V7.17188C21.1875 8.10938 20.7188 8.57812 19.7812 8.57812H19.3125V15.8438C19.3125 19.9062 17.2812 21.9375 13.2188 21.9375H3.28125C2.34375 21.9375 1.875 21.4688 1.875 20.5312Z" fill="black"/>
</svg>
